<svg width="128" height="40" viewBox="0 0 128 40" fill="none" xmlns="http://www.w3.org/2000/svg">
<g clip-path="url(#clip0_1_173)">
<rect width="128" height="40" rx="6" fill="url(#paint0_radial_1_173)"/>
<path d="M103.33 30.7925C101.39 27.4332 101.875 23.3407 104.24 20.5378C104.532 20.1913 104.603 19.6989 104.376 19.3063L99.4554 10.7832C99.1793 10.3049 98.5677 10.1411 98.0894 10.4172L92.0648 13.8955C91.5865 14.1717 91.4226 14.7833 91.6988 15.2615L110.851 48.4345C111.127 48.9128 111.739 49.0767 112.217 48.8005L118.242 45.3222C118.72 45.0461 118.884 44.4345 118.608 43.9562L113.8 35.6291C113.574 35.2365 113.112 35.0515 112.666 35.1314C109.056 35.7781 105.269 34.1518 103.33 30.7925Z" fill="#FF9C41" fill-opacity="0.25"/>
<path d="M118.842 21.8362C120.804 25.2344 120.285 29.3829 117.849 32.1879C117.548 32.5346 117.472 33.0338 117.702 33.4315L122.486 41.7173C122.762 42.1956 123.373 42.3595 123.852 42.0833L129.876 38.605C130.355 38.3289 130.518 37.7173 130.242 37.239L111.09 4.06604C110.814 3.58774 110.202 3.42387 109.724 3.70001L103.699 7.17833C103.221 7.45447 103.057 8.06606 103.333 8.54435L108.23 17.0262C108.46 17.4239 108.93 17.6081 109.381 17.5206C113.028 16.8131 116.88 18.438 118.842 21.8362Z" fill="#FF9C41" fill-opacity="0.25"/>
<path d="M112.089 26.167C112.033 25.655 112.05 25.2738 112.14 25.0234C112.229 24.7731 112.415 24.5665 112.696 24.4039C112.974 24.2436 113.243 24.1809 113.503 24.216C113.762 24.251 113.976 24.4136 114.143 24.7036C114.308 24.9894 114.319 25.2879 114.2 25.5854C114.173 25.6521 114.139 25.7174 114.097 25.7816C113.793 26.2427 113.565 26.8118 113.842 27.2901L114.49 28.4139C114.503 28.4359 114.529 28.447 114.554 28.4409C114.559 28.4397 114.564 28.4378 114.568 28.4353C115.343 28.0021 115.843 27.3939 116.093 26.6797C116.269 26.178 116.29 25.6248 116.184 25.0749C116.104 24.6633 116.248 24.2209 116.611 24.0112L116.875 23.8589C117.135 23.709 117.224 23.377 117.074 23.1174C116.924 22.8578 116.592 22.7688 116.332 22.9187L116.102 23.0517C115.739 23.2611 115.285 23.1499 114.991 22.8512C114.577 22.4288 114.13 22.1748 113.614 22.0253C112.898 21.818 112.199 21.9208 111.509 22.3192C110.746 22.76 110.296 23.3174 110.155 23.9837C110.014 24.65 110.032 25.5775 110.204 26.7628C110.261 27.2577 110.246 27.6351 110.158 27.893C110.07 28.1505 109.865 28.373 109.543 28.5591C109.265 28.7195 108.997 28.7738 108.738 28.7219C108.48 28.6697 108.266 28.4969 108.096 28.2028C107.893 27.8518 107.833 27.5056 107.928 27.1566C107.956 27.0523 108.006 26.949 108.074 26.8481C108.383 26.3902 108.6 25.8111 108.324 25.3328L107.674 24.2078C107.666 24.1929 107.65 24.1836 107.633 24.1832C107.624 24.183 107.615 24.1851 107.608 24.1894C106.687 24.702 106.136 25.3418 105.963 26.1356C105.834 26.7247 105.845 27.3002 106.02 27.9105C106.131 28.2961 106.002 28.7259 105.655 28.9264L105.452 29.0437C105.192 29.1936 105.103 29.5256 105.253 29.7852C105.403 30.0448 105.735 30.1338 105.995 29.9839L106.195 29.8684C106.541 29.6689 106.974 29.7727 107.251 30.0605C107.672 30.4988 108.12 30.7619 108.628 30.9069C109.319 31.104 110.028 31.0121 110.739 30.6018C111.486 30.1705 111.936 29.6234 112.081 28.9461C112.227 28.2692 112.232 27.3474 112.089 26.167Z" fill="#FF9C41" fill-opacity="0.25"/>
<path d="M114.269 24.8029C111.69 20.3362 112.388 14.8785 115.614 11.2086C115.914 10.8681 115.983 10.3749 115.757 9.98226L109.047 -1.63944C108.771 -2.11773 108.159 -2.28161 107.681 -2.00546L99.2659 2.85291C98.7876 3.12905 98.6237 3.74064 98.8999 4.21894L124.263 48.1484C124.539 48.6267 125.15 48.7906 125.629 48.5144L134.044 43.656C134.522 43.3799 134.686 42.7683 134.41 42.29L127.848 30.9248C127.621 30.5322 127.159 30.3457 126.715 30.4347C121.923 31.3941 116.848 29.2696 114.269 24.8029Z" fill="#FF9C41"/>
<path d="M134.561 13.0862C137.17 17.6049 136.426 23.1378 133.102 26.808C132.794 27.1484 132.719 27.6485 132.949 28.0462L139.481 39.3609C139.757 39.8392 140.369 40.0031 140.847 39.7269L149.262 34.8685C149.741 34.5924 149.904 33.9808 149.628 33.5025L124.266 -10.4269C123.989 -10.9052 123.378 -11.0691 122.9 -10.793L114.485 -5.9346C114.006 -5.65845 113.842 -5.04686 114.119 -4.56857L120.799 7.00253C121.029 7.40021 121.499 7.58579 121.948 7.48903C126.788 6.44568 131.952 8.56755 134.561 13.0862Z" fill="#FF9C41"/>
<path d="M125.728 18.752C125.655 18.0823 125.677 17.5835 125.794 17.256C125.911 16.9285 126.154 16.6583 126.522 16.4455C126.885 16.2359 127.237 16.1539 127.577 16.1998C127.917 16.2456 128.196 16.4583 128.415 16.8376C128.631 17.2115 128.645 17.602 128.489 17.9912C128.42 18.1631 128.313 18.3278 128.162 18.4887C127.784 18.8915 127.59 19.476 127.866 19.9543L128.869 21.6913C128.886 21.7202 128.919 21.7346 128.952 21.7267C128.958 21.7251 128.965 21.7226 128.971 21.7193C129.984 21.1526 130.639 20.3571 130.966 19.4227C131.205 18.7386 131.225 17.9811 131.066 17.2318C130.963 16.7479 131.134 16.226 131.562 15.9787L131.988 15.7326C132.328 15.5365 132.444 15.1023 132.248 14.7626C132.052 14.423 131.618 14.3066 131.278 14.5027L130.931 14.7032C130.483 14.9621 129.92 14.8256 129.561 14.4523C129.008 13.877 128.413 13.534 127.722 13.334C126.786 13.0628 125.872 13.1972 124.969 13.7184C123.97 14.2951 123.382 15.0242 123.198 15.8959C123.014 16.7676 123.036 17.9808 123.262 19.5315C123.336 20.1788 123.317 20.6726 123.202 21.0099C123.087 21.3467 122.818 21.6378 122.397 21.8813C122.033 22.0911 121.683 22.1621 121.344 22.0942C121.006 22.0259 120.726 21.7999 120.504 21.4152C120.239 20.956 120.16 20.5031 120.284 20.0466C120.345 19.8257 120.477 19.6083 120.667 19.4024C121.042 18.9969 121.232 18.4059 120.956 17.9276L119.952 16.189C119.941 16.1696 119.921 16.1574 119.898 16.1568C119.887 16.1566 119.875 16.1594 119.865 16.165C118.661 16.8356 117.94 17.6726 117.713 18.711C117.544 19.4863 117.56 20.2437 117.793 21.0476C117.936 21.5432 117.771 22.0961 117.324 22.3541L117.045 22.5152C116.706 22.7113 116.589 23.1456 116.785 23.4852C116.981 23.8248 117.416 23.9412 117.755 23.7451L118.027 23.5885C118.473 23.3306 119.034 23.4647 119.391 23.8373C119.944 24.4156 120.533 24.762 121.2 24.9526C122.104 25.2104 123.032 25.0901 123.961 24.5535C124.939 23.9892 125.528 23.2735 125.718 22.3875C125.908 21.502 125.915 20.2962 125.728 18.752Z" fill="#FF9C41"/>
</g>
<defs>
<radialGradient id="paint0_radial_1_173" cx="0" cy="0" r="1" gradientUnits="userSpaceOnUse" gradientTransform="translate(98.5 5.5) rotate(143.509) scale(90.802 310.927)">
<stop stop-color="#FF9C41" stop-opacity="0.35"/>
<stop offset="1" stop-color="#FF9C41" stop-opacity="0.05"/>
</radialGradient>
<clipPath id="clip0_1_173">
<rect width="128" height="40" rx="6" fill="white"/>
</clipPath>
</defs>
</svg>
